<svg id="logo" xmlns="http://www.w3.org/2000/svg" width="154.842" height="88.208" viewBox="0 0 154.842 88.208">
  <g id="Group_2" data-name="Group 2" transform="translate(0.448 75.209)">
    <g id="Group_1" data-name="Group 1">
      <path id="Path_1" data-name="Path 1" d="M416.363,490.409c2.031,0,3.265-.694,3.265-2.735v-8.756h1.107v8.756c0,2.752-1.561,3.782-4.371,3.782-2.685,0-4.264-1.03-4.264-3.782v-8.756h1.125v8.756C413.224,489.7,414.44,490.409,416.363,490.409Z" transform="translate(-412.099 -478.474)" fill="#006385"/>
      <path id="Path_2" data-name="Path 2" d="M442.269,496.485v-8.88h1.089v.658a7.347,7.347,0,0,1,2.938-.817c2.485,0,3.03,1.119,3.03,4.423v4.617h-1.07v-4.617c0-2.593-.29-3.463-2.1-3.463a6.756,6.756,0,0,0-2.793.746v7.334Z" transform="translate(-430.46 -483.664)" fill="#006385"/>
      <path id="Path_3" data-name="Path 3" d="M468.312,478.781H469.4v1.333h-1.089Zm0,3.551H469.4v8.88h-1.089Z" transform="translate(-446.309 -478.391)" fill="#006385"/>
      <path id="Path_4" data-name="Path 4" d="M477.428,487.854l2.359,7.957h.708l2.375-7.957h1.125l-2.684,8.88h-2.376l-2.648-8.88Z" transform="translate(-451.162 -483.912)" fill="#006385"/>
      <path id="Path_5" data-name="Path 5" d="M506.727,495.527l.036.888s-2.05.248-3.465.248c-2.7-.018-3.52-1.616-3.52-4.581,0-3.428,1.525-4.636,3.738-4.636,2.339,0,3.574,1.208,3.574,4.192l-.036.851h-6.168c0,2.1.618,3.2,2.522,3.2C504.732,495.687,506.727,495.527,506.727,495.527ZM506,491.6c0-2.345-.781-3.215-2.485-3.215-1.651,0-2.631.906-2.631,3.215Z" transform="translate(-465.46 -483.664)" fill="#006385"/>
      <path id="Path_6" data-name="Path 6" d="M525.039,487.579h1.088v1.26a8.877,8.877,0,0,1,3.32-1.437v1.083a11.156,11.156,0,0,0-3.32,1.35v6.624h-1.088Z" transform="translate(-480.833 -483.637)" fill="#006385"/>
      <path id="Path_7" data-name="Path 7" d="M539.727,487.854h6.731v.96l-5.406,6.962h5.406v.958h-6.731v-.958l5.424-6.962h-5.424Z" transform="translate(-489.771 -483.912)" fill="#006385"/>
      <path id="Path_8" data-name="Path 8" d="M568.655,495.012c.055.515.582.71,1.18.782l-.054.852a2.585,2.585,0,0,1-2.051-.71,10.007,10.007,0,0,1-3.41.728c-1.6,0-2.485-.905-2.485-2.681,0-1.633.834-2.415,2.667-2.593l3.084-.3v-.8c0-1.332-.617-1.865-1.778-1.865-1.306,0-3.428.25-3.428.25l-.056-.871a26.415,26.415,0,0,1,3.556-.355c1.886,0,2.775.925,2.775,2.842Zm-4.027-2.788c-1.214.107-1.669.675-1.669,1.74,0,1.137.508,1.776,1.506,1.776a11.071,11.071,0,0,0,3.12-.6v-3.215Z" transform="translate(-503.226 -483.664)" fill="#006385"/>
      <path id="Path_9" data-name="Path 9" d="M596.9,487.854l2.358,7.957h.708l2.376-7.957h1.124l-2.684,8.88h-2.377l-2.648-8.88Z" transform="translate(-523.87 -483.912)" fill="#006385"/>
      <path id="Path_10" data-name="Path 10" d="M632.042,478.918h2.032l3.955,10.779L642,478.918h2.013V491.3h-1.107V480.143h-.253l-3.991,10.744h-1.306L633.4,480.143h-.254V491.3h-1.107Z" transform="translate(-545.953 -478.474)" fill="#006385"/>
      <path id="Path_11" data-name="Path 11" d="M676.215,495.012c.056.515.581.71,1.18.782l-.055.852a2.583,2.583,0,0,1-2.05-.71,10.007,10.007,0,0,1-3.411.728c-1.6,0-2.485-.905-2.485-2.681,0-1.633.835-2.415,2.668-2.593l3.083-.3v-.8c0-1.332-.617-1.865-1.778-1.865-1.3,0-3.428.25-3.428.25l-.055-.871a26.415,26.415,0,0,1,3.556-.355c1.887,0,2.775.925,2.775,2.842Zm-4.026-2.788c-1.216.107-1.67.675-1.67,1.74,0,1.137.508,1.776,1.505,1.776a11.071,11.071,0,0,0,3.12-.6v-3.215Z" transform="translate(-568.685 -483.664)" fill="#006385"/>
      <path id="Path_12" data-name="Path 12" d="M695.394,487.579h1.088v1.26A8.876,8.876,0,0,1,699.8,487.4v1.083a11.15,11.15,0,0,0-3.319,1.35v6.624h-1.088Z" transform="translate(-584.508 -483.637)" fill="#006385"/>
      <path id="Path_13" data-name="Path 13" d="M711.474,478.781h1.089v1.333h-1.089Zm0,3.551h1.089v8.88h-1.089Z" transform="translate(-594.294 -478.391)" fill="#006385"/>
      <path id="Path_14" data-name="Path 14" d="M729.558,486.006c0,3.428-.906,4.777-4.226,4.777-1.143,0-2.921-.178-2.921-.178V477.784H723.5v4.4a8.106,8.106,0,0,1,2.831-.622C728.8,481.566,729.558,482.863,729.558,486.006Zm-1.125.018c0-2.434-.435-3.481-2.177-3.481a8.475,8.475,0,0,0-2.758.569v6.607s1.27.106,1.814.106C728,489.824,728.433,488.617,728.433,486.024Z" transform="translate(-600.95 -477.784)" fill="#006385"/>
      <path id="Path_15" data-name="Path 15" d="M753.277,491.922c0,3.179-.744,4.741-3.774,4.741-3.047,0-3.827-1.4-3.827-4.759,0-3.143,1.016-4.458,3.827-4.458C752.134,487.446,753.277,488.814,753.277,491.922Zm-1.125,0c0-2.539-.8-3.516-2.649-3.516-2.085,0-2.721.853-2.721,3.5,0,2.7.382,3.8,2.721,3.8S752.152,494.462,752.152,491.922Z" transform="translate(-615.109 -483.664)" fill="#006385"/>
      <path id="Path_16" data-name="Path 16" d="M771.86,487.579h1.089v1.26a8.878,8.878,0,0,1,3.32-1.437v1.083a11.153,11.153,0,0,0-3.32,1.35v6.624H771.86Z" transform="translate(-631.044 -483.637)" fill="#006385"/>
      <path id="Path_17" data-name="Path 17" d="M794.88,487.854v8.88h-1.071v-.621a6.643,6.643,0,0,1-2.794.8c-2.521,0-3.029-1.083-3.029-4.422v-4.635h1.07v4.6c0,2.663.272,3.5,2.086,3.5a6.187,6.187,0,0,0,2.666-.745v-7.354Z" transform="translate(-640.858 -483.912)" fill="#006385"/>
    </g>
  </g>
  <g id="Group_3" data-name="Group 3" transform="translate(61.642 70.464)">
    <path id="Path_18" data-name="Path 18" d="M568.441,465.662" transform="translate(-568.441 -465.662)" fill="#006385"/>
  </g>
  <g id="Group_4" data-name="Group 4" transform="translate(61.681 54.168)">
    <path id="Path_19" data-name="Path 19" d="M568.539,424.03" transform="translate(-568.539 -424.03)" fill="#006385"/>
  </g>
  <g id="Group_7" data-name="Group 7" transform="translate(61.976 9.816)">
    <g id="Group_5" data-name="Group 5" transform="translate(29.013 0)">
      <path id="Path_20" data-name="Path 20" d="M644.273,331.72a1.305,1.305,0,0,1-.478-.126l-.38.749V335.6h1.954v-3.256l-.409-.736a1.6,1.6,0,0,1-.587.112Z" transform="translate(-643.415 -323.423)" fill="#006385"/>
      <path id="Path_21" data-name="Path 21" d="M645.508,318.3l-.477-7.2a.369.369,0,1,0-.737,0l-.239,7.188c-.005.056.063.163.2.247a.86.86,0,0,0,.35.124h.264C645.273,318.627,645.5,318.414,645.508,318.3Z" transform="translate(-643.804 -310.718)" fill="#006385"/>
      <path id="Path_22" data-name="Path 22" d="M645.524,331.031l.092,0a1.01,1.01,0,0,0,.106-.014h-.265C645.478,331.022,645.5,331.031,645.524,331.031Z" transform="translate(-644.658 -323.074)" fill="#006385"/>
    </g>
    <g id="Group_6" data-name="Group 6" transform="translate(0 0.001)">
      <path id="Path_23" data-name="Path 23" d="M570.389,331.722a1.328,1.328,0,0,0,.478-.125l.38.748V335.6h-1.954v-3.255l.409-.737a1.547,1.547,0,0,0,.588.112Z" transform="translate(-569.293 -323.425)" fill="#006385"/>
      <path id="Path_24" data-name="Path 24" d="M569.931,318.3l.478-7.2a.369.369,0,1,1,.737.005l.24,7.189c.005.055-.062.162-.2.245a.859.859,0,0,1-.35.124h-.265C570.167,318.629,569.94,318.415,569.931,318.3Z" transform="translate(-569.681 -310.72)" fill="#006385"/>
      <path id="Path_25" data-name="Path 25" d="M571.767,331.031l-.092,0a1.018,1.018,0,0,1-.107-.014h.265C571.812,331.022,571.785,331.031,571.767,331.031Z" transform="translate(-570.678 -323.074)" fill="#006385"/>
    </g>
  </g>
  <g id="Group_11" data-name="Group 11" transform="translate(0 22.784)">
    <g id="Group_8" data-name="Group 8" transform="translate(0 0)">
      <rect id="Rectangle_3" data-name="Rectangle 3" width="61.376" height="47.326" fill="#006385"/>
    </g>
    <g id="Group_9" data-name="Group 9" transform="translate(93.465 0)">
      <rect id="Rectangle_4" data-name="Rectangle 4" width="61.376" height="47.326" fill="#006385"/>
    </g>
    <g id="Group_10" data-name="Group 10" transform="translate(62.081 0)">
      <path id="Path_26" data-name="Path 26" d="M572.974,392.481a1.632,1.632,0,0,1,3.252,0v4.867h4.529v-4.867a1.632,1.632,0,0,1,3.252,0v4.867h1.7v-4.867a1.632,1.632,0,0,1,3.252,0v4.867h4.389v-4.867a1.632,1.632,0,0,1,3.252,0v4.867h3.648V385.2H569.562v12.148h3.412Zm21.9-5.353,3.052,1.887h0l-.179.287-2.866-1.77-2.678,1.769-.188-.282Zm-10.2-.294,5.61,2.171h0l-.124.316-5.483-2.121-5.125,2.12-.13-.314Zm-10.176.287,3.052,1.886h0l-.179.287-2.868-1.772-2.679,1.77-.186-.282Z" transform="translate(-569.562 -369.015)" fill="#006385"/>
      <path id="Path_27" data-name="Path 27" d="M572.977,353.669h3.247v6.018h4.532v-6.018H584v6.018h1.714v-6.008h3.246v6.008h4.393v-6.008H596.6v6.008h3.65V343.85H569.562v15.837h3.415Zm21.976-3.71a3.509,3.509,0,0,1,3.058,1.831l-.3.16a3.095,3.095,0,0,0-5.473-.005h0l-.295-.164A3.489,3.489,0,0,1,594.952,349.959Zm-10.276-.423,5.61,2.168h0l-.124.315-5.483-2.121-5.125,2.12-.13-.314Zm-12.814,2.4-.3-.166a3.433,3.433,0,0,1,6.067.011l-.3.161a3.094,3.094,0,0,0-5.473-.007Z" transform="translate(-569.562 -343.85)" fill="#006385"/>
      <path id="Path_28" data-name="Path 28" d="M569.562,440.125h11.45V430.035s.428-2.766,3.846-2.812a3.6,3.6,0,0,1,3.847,2.812v10.091H600.25V424.282H569.562Zm23.789-11.01a1.635,1.635,0,0,1,3.251,0v5.6h-3.251Zm-18.75-1.473a1.666,1.666,0,0,1,1.626,1.465v5.6h-3.252v-5.6A1.678,1.678,0,0,1,574.6,427.643Z" transform="translate(-569.562 -392.8)" fill="#006385"/>
      <rect id="Rectangle_5" data-name="Rectangle 5" width="30.688" height="2.472" transform="translate(0 28.671)" fill="#006385"/>
      <rect id="Rectangle_6" data-name="Rectangle 6" width="3.415" height="0.01" transform="translate(0 15.837)" fill="#006385"/>
      <rect id="Rectangle_7" data-name="Rectangle 7" width="3.65" height="0.01" transform="translate(27.038 15.837)" fill="#006385"/>
      <rect id="Rectangle_8" data-name="Rectangle 8" width="4.393" height="0.01" transform="translate(19.399 15.837)" fill="#006385"/>
      <rect id="Rectangle_9" data-name="Rectangle 9" width="1.714" height="0.01" transform="translate(14.439 15.837)" fill="#006385"/>
      <rect id="Rectangle_10" data-name="Rectangle 10" width="4.532" height="0.01" transform="translate(6.662 15.837)" fill="#006385"/>
      <path id="Path_29" data-name="Path 29" d="M627.5,364.53h0Z" transform="translate(-604.819 -356.436)" fill="#006385"/>
    </g>
  </g>
  <path id="Path_30" data-name="Path 30" d="M592.022,285.639l.992,3h11.215l.988-3Z" transform="translate(-521.149 -285.639)" fill="#006385"/>
  <g id="Group_12" data-name="Group 12" transform="translate(63.928 3.392)">
    <path id="Path_31" data-name="Path 31" d="M593.43,294.305H582.222a13.476,13.476,0,0,0-7.87,13.741h8.072l1.841-5.213-.62-.642v-1s1.185-1.4,4.292-1.434a5.655,5.655,0,0,1,4.082,1.45v.993l-.594.6,1.821,5.245H601.3A13.529,13.529,0,0,0,593.43,294.305Z" transform="translate(-574.28 -294.305)" fill="#006385"/>
  </g>
  <g id="Group_13" data-name="Group 13" transform="translate(82.865 17.496)">
    <path id="Path_32" data-name="Path 32" d="M630.853,330.66a.651.651,0,0,1-.178-.322h-8.014v4.5h7.748v-3.3Z" transform="translate(-622.661 -330.338)" fill="#006385"/>
  </g>
  <g id="Group_14" data-name="Group 14" transform="translate(63.861 17.47)">
    <path id="Path_33" data-name="Path 33" d="M574.11,330.594a.652.652,0,0,0,.175-.322H582.3V334.8h-7.755v-3.325Z" transform="translate(-574.11 -330.272)" fill="#006385"/>
  </g>
  <g id="Group_15" data-name="Group 15" transform="translate(72.411 9.206)">
    <path id="Path_34" data-name="Path 34" d="M604.186,311.793l.668-.725v-.679a5.48,5.48,0,0,0-3.817-1.229,5.741,5.741,0,0,0-3.856,1.223v.689l.672.691-1.9,5.4v4.782h10.116v-4.775Zm-.448-.651a4.137,4.137,0,0,0-2.728-.843,4.078,4.078,0,0,0-2.681.842l-.206-.22a4.367,4.367,0,0,1,2.887-.924,4.42,4.42,0,0,1,2.938.928Z" transform="translate(-595.953 -309.16)" fill="#006385"/>
  </g>
</svg>
